ISO-10303-21;
HEADER;
/* Generated by software containing ST-Developer
 * from STEP Tools, Inc. (www.steptools.com) 
 */

FILE_DESCRIPTION(
/* description */ (''),
/* implementation_level */ '2;1');

FILE_NAME(
/* name */ 'base_rettangolare.step',
/* time_stamp */ '2026-09-09T15:39:05+02:00',
/* author */ (''),
/* organization */ (''),
/* preprocessor_version */ 'ST-DEVELOPER v20.2',
/* originating_system */ 'Autodesk Translation Framework v15.15.0.0',
/* authorisation */ '');

FILE_SCHEMA (('AUTOMOTIVE_DESIGN { 1 0 10303 214 3 1 1 }'));
ENDSEC;

DATA;
#10=MECHANICAL_DESIGN_GEOMETRIC_PRESENTATION_REPRESENTATION('',(#13),#588);
#11=SHAPE_REPRESENTATION_RELATIONSHIP('SRR','None',#595,#12);
#12=ADVANCED_BREP_SHAPE_REPRESENTATION('',(#14),#587);
#13=STYLED_ITEM('',(#604),#14);
#14=MANIFOLD_SOLID_BREP('Corpo1',#358);
#15=CONICAL_SURFACE('',#387,0.0375,1.02974425867665);
#16=CONICAL_SURFACE('',#390,0.0375,1.02974425867665);
#17=CYLINDRICAL_SURFACE('',#386,0.259999999999998);
#18=CYLINDRICAL_SURFACE('',#389,0.075);
#19=CYLINDRICAL_SURFACE('',#392,0.075);
#20=CIRCLE('',#374,0.075);
#21=CIRCLE('',#375,0.075);
#22=CIRCLE('',#376,0.259999999999998);
#23=CIRCLE('',#381,0.259999999999998);
#24=CIRCLE('',#388,0.075);
#25=CIRCLE('',#391,0.075);
#26=FACE_BOUND('',#51,.T.);
#27=FACE_BOUND('',#52,.T.);
#28=FACE_BOUND('',#53,.T.);
#29=FACE_BOUND('',#54,.T.);
#30=FACE_BOUND('',#59,.T.);
#31=FACE_OUTER_BOUND('',#49,.T.);
#32=FACE_OUTER_BOUND('',#50,.T.);
#33=FACE_OUTER_BOUND('',#55,.T.);
#34=FACE_OUTER_BOUND('',#56,.T.);
#35=FACE_OUTER_BOUND('',#57,.T.);
#36=FACE_OUTER_BOUND('',#58,.T.);
#37=FACE_OUTER_BOUND('',#60,.T.);
#38=FACE_OUTER_BOUND('',#61,.T.);
#39=FACE_OUTER_BOUND('',#62,.T.);
#40=FACE_OUTER_BOUND('',#63,.T.);
#41=FACE_OUTER_BOUND('',#64,.T.);
#42=FACE_OUTER_BOUND('',#65,.T.);
#43=FACE_OUTER_BOUND('',#66,.T.);
#44=FACE_OUTER_BOUND('',#67,.T.);
#45=FACE_OUTER_BOUND('',#68,.T.);
#46=FACE_OUTER_BOUND('',#69,.T.);
#47=FACE_OUTER_BOUND('',#70,.T.);
#48=FACE_OUTER_BOUND('',#71,.T.);
#49=EDGE_LOOP('',(#233,#234,#235,#236));
#50=EDGE_LOOP('',(#237,#238,#239,#240));
#51=EDGE_LOOP('',(#241,#242,#243,#244));
#52=EDGE_LOOP('',(#245));
#53=EDGE_LOOP('',(#246));
#54=EDGE_LOOP('',(#247));
#55=EDGE_LOOP('',(#248,#249,#250,#251,#252,#253,#254,#255));
#56=EDGE_LOOP('',(#256,#257,#258,#259));
#57=EDGE_LOOP('',(#260,#261,#262,#263));
#58=EDGE_LOOP('',(#264,#265,#266,#267,#268,#269,#270,#271,#272,#273,#274,
#275));
#59=EDGE_LOOP('',(#276));
#60=EDGE_LOOP('',(#277,#278,#279,#280));
#61=EDGE_LOOP('',(#281,#282,#283,#284));
#62=EDGE_LOOP('',(#285,#286,#287,#288));
#63=EDGE_LOOP('',(#289,#290,#291,#292,#293,#294,#295,#296));
#64=EDGE_LOOP('',(#297,#298,#299,#300));
#65=EDGE_LOOP('',(#301,#302,#303));
#66=EDGE_LOOP('',(#304,#305,#306,#307));
#67=EDGE_LOOP('',(#308,#309,#310));
#68=EDGE_LOOP('',(#311,#312,#313,#314));
#69=EDGE_LOOP('',(#315,#316,#317,#318));
#70=EDGE_LOOP('',(#319,#320,#321,#322));
#71=EDGE_LOOP('',(#323,#324,#325,#326));
#72=LINE('',#491,#113);
#73=LINE('',#493,#114);
#74=LINE('',#495,#115);
#75=LINE('',#496,#116);
#76=LINE('',#499,#117);
#77=LINE('',#501,#118);
#78=LINE('',#502,#119);
#79=LINE('',#505,#120);
#80=LINE('',#507,#121);
#81=LINE('',#509,#122);
#82=LINE('',#510,#123);
#83=LINE('',#519,#124);
#84=LINE('',#521,#125);
#85=LINE('',#523,#126);
#86=LINE('',#525,#127);
#87=LINE('',#527,#128);
#88=LINE('',#528,#129);
#89=LINE('',#531,#130);
#90=LINE('',#532,#131);
#91=LINE('',#534,#132);
#92=LINE('',#537,#133);
#93=LINE('',#539,#134);
#94=LINE('',#541,#135);
#95=LINE('',#543,#136);
#96=LINE('',#545,#137);
#97=LINE('',#547,#138);
#98=LINE('',#548,#139);
#99=LINE('',#553,#140);
#100=LINE('',#555,#141);
#101=LINE('',#556,#142);
#102=LINE('',#558,#143);
#103=LINE('',#560,#144);
#104=LINE('',#562,#145);
#105=LINE('',#563,#146);
#106=LINE('',#565,#147);
#107=LINE('',#570,#148);
#108=LINE('',#572,#149);
#109=LINE('',#577,#150);
#110=LINE('',#579,#151);
#111=LINE('',#581,#152);
#112=LINE('',#583,#153);
#113=VECTOR('',#400,1.);
#114=VECTOR('',#401,1.);
#115=VECTOR('',#402,1.);
#116=VECTOR('',#403,1.);
#117=VECTOR('',#406,1.);
#118=VECTOR('',#407,1.);
#119=VECTOR('',#408,1.);
#120=VECTOR('',#409,1.);
#121=VECTOR('',#410,1.);
#122=VECTOR('',#411,1.);
#123=VECTOR('',#412,1.);
#124=VECTOR('',#421,1.);
#125=VECTOR('',#422,1.);
#126=VECTOR('',#423,1.);
#127=VECTOR('',#424,1.);
#128=VECTOR('',#425,1.);
#129=VECTOR('',#426,1.);
#130=VECTOR('',#429,1.);
#131=VECTOR('',#430,1.);
#132=VECTOR('',#433,1.);
#133=VECTOR('',#436,1.);
#134=VECTOR('',#437,1.);
#135=VECTOR('',#438,1.);
#136=VECTOR('',#439,1.);
#137=VECTOR('',#440,1.);
#138=VECTOR('',#441,1.);
#139=VECTOR('',#442,1.);
#140=VECTOR('',#447,1.);
#141=VECTOR('',#448,1.);
#142=VECTOR('',#449,1.);
#143=VECTOR('',#452,1.);
#144=VECTOR('',#455,1.);
#145=VECTOR('',#458,1.);
#146=VECTOR('',#459,1.);
#147=VECTOR('',#462,0.259999999999998);
#148=VECTOR('',#467,0.0375);
#149=VECTOR('',#470,0.075);
#150=VECTOR('',#475,0.0375);
#151=VECTOR('',#478,0.075);
#152=VECTOR('',#481,1.);
#153=VECTOR('',#484,1.);
#154=VERTEX_POINT('',#489);
#155=VERTEX_POINT('',#490);
#156=VERTEX_POINT('',#492);
#157=VERTEX_POINT('',#494);
#158=VERTEX_POINT('',#498);
#159=VERTEX_POINT('',#500);
#160=VERTEX_POINT('',#503);
#161=VERTEX_POINT('',#504);
#162=VERTEX_POINT('',#506);
#163=VERTEX_POINT('',#508);
#164=VERTEX_POINT('',#511);
#165=VERTEX_POINT('',#513);
#166=VERTEX_POINT('',#515);
#167=VERTEX_POINT('',#518);
#168=VERTEX_POINT('',#520);
#169=VERTEX_POINT('',#522);
#170=VERTEX_POINT('',#524);
#171=VERTEX_POINT('',#526);
#172=VERTEX_POINT('',#530);
#173=VERTEX_POINT('',#536);
#174=VERTEX_POINT('',#538);
#175=VERTEX_POINT('',#540);
#176=VERTEX_POINT('',#542);
#177=VERTEX_POINT('',#544);
#178=VERTEX_POINT('',#546);
#179=VERTEX_POINT('',#549);
#180=VERTEX_POINT('',#552);
#181=VERTEX_POINT('',#554);
#182=VERTEX_POINT('',#567);
#183=VERTEX_POINT('',#569);
#184=VERTEX_POINT('',#574);
#185=VERTEX_POINT('',#576);
#186=EDGE_CURVE('',#154,#155,#72,.T.);
#187=EDGE_CURVE('',#156,#154,#73,.T.);
#188=EDGE_CURVE('',#157,#156,#74,.T.);
#189=EDGE_CURVE('',#155,#157,#75,.T.);
#190=EDGE_CURVE('',#154,#158,#76,.T.);
#191=EDGE_CURVE('',#158,#159,#77,.T.);
#192=EDGE_CURVE('',#159,#156,#78,.T.);
#193=EDGE_CURVE('',#160,#161,#79,.T.);
#194=EDGE_CURVE('',#161,#162,#80,.T.);
#195=EDGE_CURVE('',#162,#163,#81,.T.);
#196=EDGE_CURVE('',#163,#160,#82,.T.);
#197=EDGE_CURVE('',#164,#164,#20,.T.);
#198=EDGE_CURVE('',#165,#165,#21,.T.);
#199=EDGE_CURVE('',#166,#166,#22,.T.);
#200=EDGE_CURVE('',#167,#155,#83,.T.);
#201=EDGE_CURVE('',#168,#167,#84,.T.);
#202=EDGE_CURVE('',#169,#168,#85,.T.);
#203=EDGE_CURVE('',#170,#169,#86,.T.);
#204=EDGE_CURVE('',#171,#170,#87,.T.);
#205=EDGE_CURVE('',#171,#158,#88,.T.);
#206=EDGE_CURVE('',#172,#171,#89,.T.);
#207=EDGE_CURVE('',#159,#172,#90,.T.);
#208=EDGE_CURVE('',#172,#157,#91,.T.);
#209=EDGE_CURVE('',#170,#173,#92,.T.);
#210=EDGE_CURVE('',#173,#174,#93,.T.);
#211=EDGE_CURVE('',#174,#175,#94,.T.);
#212=EDGE_CURVE('',#175,#176,#95,.T.);
#213=EDGE_CURVE('',#176,#177,#96,.T.);
#214=EDGE_CURVE('',#177,#178,#97,.T.);
#215=EDGE_CURVE('',#178,#167,#98,.T.);
#216=EDGE_CURVE('',#179,#179,#23,.T.);
#217=EDGE_CURVE('',#180,#168,#99,.T.);
#218=EDGE_CURVE('',#181,#180,#100,.T.);
#219=EDGE_CURVE('',#169,#181,#101,.T.);
#220=EDGE_CURVE('',#180,#178,#102,.T.);
#221=EDGE_CURVE('',#173,#181,#103,.T.);
#222=EDGE_CURVE('',#160,#177,#104,.T.);
#223=EDGE_CURVE('',#163,#174,#105,.T.);
#224=EDGE_CURVE('',#166,#179,#106,.T.);
#225=EDGE_CURVE('',#182,#182,#24,.T.);
#226=EDGE_CURVE('',#182,#183,#107,.T.);
#227=EDGE_CURVE('',#165,#182,#108,.T.);
#228=EDGE_CURVE('',#184,#184,#25,.T.);
#229=EDGE_CURVE('',#184,#185,#109,.T.);
#230=EDGE_CURVE('',#164,#184,#110,.T.);
#231=EDGE_CURVE('',#162,#175,#111,.T.);
#232=EDGE_CURVE('',#161,#176,#112,.T.);
#233=ORIENTED_EDGE('',*,*,#186,.F.);
#234=ORIENTED_EDGE('',*,*,#187,.F.);
#235=ORIENTED_EDGE('',*,*,#188,.F.);
#236=ORIENTED_EDGE('',*,*,#189,.F.);
#237=ORIENTED_EDGE('',*,*,#187,.T.);
#238=ORIENTED_EDGE('',*,*,#190,.T.);
#239=ORIENTED_EDGE('',*,*,#191,.T.);
#240=ORIENTED_EDGE('',*,*,#192,.T.);
#241=ORIENTED_EDGE('',*,*,#193,.T.);
#242=ORIENTED_EDGE('',*,*,#194,.T.);
#243=ORIENTED_EDGE('',*,*,#195,.T.);
#244=ORIENTED_EDGE('',*,*,#196,.T.);
#245=ORIENTED_EDGE('',*,*,#197,.T.);
#246=ORIENTED_EDGE('',*,*,#198,.T.);
#247=ORIENTED_EDGE('',*,*,#199,.T.);
#248=ORIENTED_EDGE('',*,*,#186,.T.);
#249=ORIENTED_EDGE('',*,*,#200,.F.);
#250=ORIENTED_EDGE('',*,*,#201,.F.);
#251=ORIENTED_EDGE('',*,*,#202,.F.);
#252=ORIENTED_EDGE('',*,*,#203,.F.);
#253=ORIENTED_EDGE('',*,*,#204,.F.);
#254=ORIENTED_EDGE('',*,*,#205,.T.);
#255=ORIENTED_EDGE('',*,*,#190,.F.);
#256=ORIENTED_EDGE('',*,*,#205,.F.);
#257=ORIENTED_EDGE('',*,*,#206,.F.);
#258=ORIENTED_EDGE('',*,*,#207,.F.);
#259=ORIENTED_EDGE('',*,*,#191,.F.);
#260=ORIENTED_EDGE('',*,*,#188,.T.);
#261=ORIENTED_EDGE('',*,*,#192,.F.);
#262=ORIENTED_EDGE('',*,*,#207,.T.);
#263=ORIENTED_EDGE('',*,*,#208,.T.);
#264=ORIENTED_EDGE('',*,*,#189,.T.);
#265=ORIENTED_EDGE('',*,*,#208,.F.);
#266=ORIENTED_EDGE('',*,*,#206,.T.);
#267=ORIENTED_EDGE('',*,*,#204,.T.);
#268=ORIENTED_EDGE('',*,*,#209,.T.);
#269=ORIENTED_EDGE('',*,*,#210,.T.);
#270=ORIENTED_EDGE('',*,*,#211,.T.);
#271=ORIENTED_EDGE('',*,*,#212,.T.);
#272=ORIENTED_EDGE('',*,*,#213,.T.);
#273=ORIENTED_EDGE('',*,*,#214,.T.);
#274=ORIENTED_EDGE('',*,*,#215,.T.);
#275=ORIENTED_EDGE('',*,*,#200,.T.);
#276=ORIENTED_EDGE('',*,*,#216,.T.);
#277=ORIENTED_EDGE('',*,*,#202,.T.);
#278=ORIENTED_EDGE('',*,*,#217,.F.);
#279=ORIENTED_EDGE('',*,*,#218,.F.);
#280=ORIENTED_EDGE('',*,*,#219,.F.);
#281=ORIENTED_EDGE('',*,*,#201,.T.);
#282=ORIENTED_EDGE('',*,*,#215,.F.);
#283=ORIENTED_EDGE('',*,*,#220,.F.);
#284=ORIENTED_EDGE('',*,*,#217,.T.);
#285=ORIENTED_EDGE('',*,*,#203,.T.);
#286=ORIENTED_EDGE('',*,*,#219,.T.);
#287=ORIENTED_EDGE('',*,*,#221,.F.);
#288=ORIENTED_EDGE('',*,*,#209,.F.);
#289=ORIENTED_EDGE('',*,*,#221,.T.);
#290=ORIENTED_EDGE('',*,*,#218,.T.);
#291=ORIENTED_EDGE('',*,*,#220,.T.);
#292=ORIENTED_EDGE('',*,*,#214,.F.);
#293=ORIENTED_EDGE('',*,*,#222,.F.);
#294=ORIENTED_EDGE('',*,*,#196,.F.);
#295=ORIENTED_EDGE('',*,*,#223,.T.);
#296=ORIENTED_EDGE('',*,*,#210,.F.);
#297=ORIENTED_EDGE('',*,*,#199,.F.);
#298=ORIENTED_EDGE('',*,*,#224,.T.);
#299=ORIENTED_EDGE('',*,*,#216,.F.);
#300=ORIENTED_EDGE('',*,*,#224,.F.);
#301=ORIENTED_EDGE('',*,*,#225,.F.);
#302=ORIENTED_EDGE('',*,*,#226,.T.);
#303=ORIENTED_EDGE('',*,*,#226,.F.);
#304=ORIENTED_EDGE('',*,*,#198,.F.);
#305=ORIENTED_EDGE('',*,*,#227,.T.);
#306=ORIENTED_EDGE('',*,*,#225,.T.);
#307=ORIENTED_EDGE('',*,*,#227,.F.);
#308=ORIENTED_EDGE('',*,*,#228,.F.);
#309=ORIENTED_EDGE('',*,*,#229,.T.);
#310=ORIENTED_EDGE('',*,*,#229,.F.);
#311=ORIENTED_EDGE('',*,*,#197,.F.);
#312=ORIENTED_EDGE('',*,*,#230,.T.);
#313=ORIENTED_EDGE('',*,*,#228,.T.);
#314=ORIENTED_EDGE('',*,*,#230,.F.);
#315=ORIENTED_EDGE('',*,*,#211,.F.);
#316=ORIENTED_EDGE('',*,*,#223,.F.);
#317=ORIENTED_EDGE('',*,*,#195,.F.);
#318=ORIENTED_EDGE('',*,*,#231,.T.);
#319=ORIENTED_EDGE('',*,*,#212,.F.);
#320=ORIENTED_EDGE('',*,*,#231,.F.);
#321=ORIENTED_EDGE('',*,*,#194,.F.);
#322=ORIENTED_EDGE('',*,*,#232,.T.);
#323=ORIENTED_EDGE('',*,*,#213,.F.);
#324=ORIENTED_EDGE('',*,*,#232,.F.);
#325=ORIENTED_EDGE('',*,*,#193,.F.);
#326=ORIENTED_EDGE('',*,*,#222,.T.);
#327=PLANE('',#372);
#328=PLANE('',#373);
#329=PLANE('',#377);
#330=PLANE('',#378);
#331=PLANE('',#379);
#332=PLANE('',#380);
#333=PLANE('',#382);
#334=PLANE('',#383);
#335=PLANE('',#384);
#336=PLANE('',#385);
#337=PLANE('',#393);
#338=PLANE('',#394);
#339=PLANE('',#395);
#340=ADVANCED_FACE('',(#31),#327,.F.);
#341=ADVANCED_FACE('',(#32,#26,#27,#28,#29),#328,.T.);
#342=ADVANCED_FACE('',(#33),#329,.F.);
#343=ADVANCED_FACE('',(#34),#330,.F.);
#344=ADVANCED_FACE('',(#35),#331,.T.);
#345=ADVANCED_FACE('',(#36,#30),#332,.F.);
#346=ADVANCED_FACE('',(#37),#333,.F.);
#347=ADVANCED_FACE('',(#38),#334,.F.);
#348=ADVANCED_FACE('',(#39),#335,.F.);
#349=ADVANCED_FACE('',(#40),#336,.F.);
#350=ADVANCED_FACE('',(#41),#17,.F.);
#351=ADVANCED_FACE('',(#42),#15,.F.);
#352=ADVANCED_FACE('',(#43),#18,.F.);
#353=ADVANCED_FACE('',(#44),#16,.F.);
#354=ADVANCED_FACE('',(#45),#19,.F.);
#355=ADVANCED_FACE('',(#46),#337,.F.);
#356=ADVANCED_FACE('',(#47),#338,.F.);
#357=ADVANCED_FACE('',(#48),#339,.F.);
#358=CLOSED_SHELL('',(#340,#341,#342,#343,#344,#345,#346,#347,#348,#349,
#350,#351,#352,#353,#354,#355,#356,#357));
#359=DERIVED_UNIT_ELEMENT(#361,1.);
#360=DERIVED_UNIT_ELEMENT(#590,-3.);
#361=(
MASS_UNIT()
NAMED_UNIT(*)
SI_UNIT(.KILO.,.GRAM.)
);
#362=DERIVED_UNIT((#359,#360));
#363=MEASURE_REPRESENTATION_ITEM('density measure',
POSITIVE_RATIO_MEASURE(7850.),#362);
#364=PROPERTY_DEFINITION_REPRESENTATION(#369,#366);
#365=PROPERTY_DEFINITION_REPRESENTATION(#370,#367);
#366=REPRESENTATION('material name',(#368),#587);
#367=REPRESENTATION('density',(#363),#587);
#368=DESCRIPTIVE_REPRESENTATION_ITEM('Acciaio','Acciaio');
#369=PROPERTY_DEFINITION('material property','material name',#597);
#370=PROPERTY_DEFINITION('material property','density of part',#597);
#371=AXIS2_PLACEMENT_3D('',#487,#396,#397);
#372=AXIS2_PLACEMENT_3D('',#488,#398,#399);
#373=AXIS2_PLACEMENT_3D('',#497,#404,#405);
#374=AXIS2_PLACEMENT_3D('',#512,#413,#414);
#375=AXIS2_PLACEMENT_3D('',#514,#415,#416);
#376=AXIS2_PLACEMENT_3D('',#516,#417,#418);
#377=AXIS2_PLACEMENT_3D('',#517,#419,#420);
#378=AXIS2_PLACEMENT_3D('',#529,#427,#428);
#379=AXIS2_PLACEMENT_3D('',#533,#431,#432);
#380=AXIS2_PLACEMENT_3D('',#535,#434,#435);
#381=AXIS2_PLACEMENT_3D('',#550,#443,#444);
#382=AXIS2_PLACEMENT_3D('',#551,#445,#446);
#383=AXIS2_PLACEMENT_3D('',#557,#450,#451);
#384=AXIS2_PLACEMENT_3D('',#559,#453,#454);
#385=AXIS2_PLACEMENT_3D('',#561,#456,#457);
#386=AXIS2_PLACEMENT_3D('',#564,#460,#461);
#387=AXIS2_PLACEMENT_3D('',#566,#463,#464);
#388=AXIS2_PLACEMENT_3D('',#568,#465,#466);
#389=AXIS2_PLACEMENT_3D('',#571,#468,#469);
#390=AXIS2_PLACEMENT_3D('',#573,#471,#472);
#391=AXIS2_PLACEMENT_3D('',#575,#473,#474);
#392=AXIS2_PLACEMENT_3D('',#578,#476,#477);
#393=AXIS2_PLACEMENT_3D('',#580,#479,#480);
#394=AXIS2_PLACEMENT_3D('',#582,#482,#483);
#395=AXIS2_PLACEMENT_3D('',#584,#485,#486);
#396=DIRECTION('axis',(0.,0.,1.));
#397=DIRECTION('refdir',(1.,0.,0.));
#398=DIRECTION('center_axis',(0.,-1.,0.));
#399=DIRECTION('ref_axis',(0.,0.,-1.));
#400=DIRECTION('',(0.,0.,-1.));
#401=DIRECTION('',(-1.,0.,0.));
#402=DIRECTION('',(0.,0.,1.));
#403=DIRECTION('',(1.,0.,0.));
#404=DIRECTION('center_axis',(0.,0.,1.));
#405=DIRECTION('ref_axis',(1.,0.,0.));
#406=DIRECTION('',(0.,-1.,0.));
#407=DIRECTION('',(1.,0.,0.));
#408=DIRECTION('',(0.,1.,0.));
#409=DIRECTION('',(1.,0.,0.));
#410=DIRECTION('',(0.,-1.,0.));
#411=DIRECTION('',(-1.,0.,0.));
#412=DIRECTION('',(0.,1.,0.));
#413=DIRECTION('center_axis',(0.,0.,-1.));
#414=DIRECTION('ref_axis',(1.,0.,0.));
#415=DIRECTION('center_axis',(0.,0.,-1.));
#416=DIRECTION('ref_axis',(1.,0.,0.));
#417=DIRECTION('center_axis',(0.,0.,-1.));
#418=DIRECTION('ref_axis',(-1.,0.,0.));
#419=DIRECTION('center_axis',(1.,0.,0.));
#420=DIRECTION('ref_axis',(0.,0.,-1.));
#421=DIRECTION('',(0.,1.,0.));
#422=DIRECTION('',(0.,0.,-1.));
#423=DIRECTION('',(0.,1.,0.));
#424=DIRECTION('',(0.,0.,1.));
#425=DIRECTION('',(0.,1.,0.));
#426=DIRECTION('',(0.,0.,1.));
#427=DIRECTION('center_axis',(0.,1.,0.));
#428=DIRECTION('ref_axis',(0.,0.,1.));
#429=DIRECTION('',(-1.,0.,0.));
#430=DIRECTION('',(0.,0.,-1.));
#431=DIRECTION('center_axis',(1.,0.,0.));
#432=DIRECTION('ref_axis',(0.,1.,0.));
#433=DIRECTION('',(0.,1.,0.));
#434=DIRECTION('center_axis',(0.,0.,1.));
#435=DIRECTION('ref_axis',(1.,0.,0.));
#436=DIRECTION('',(1.,0.,0.));
#437=DIRECTION('',(0.,-1.,0.));
#438=DIRECTION('',(1.,0.,0.));
#439=DIRECTION('',(0.,1.,0.));
#440=DIRECTION('',(-1.,0.,0.));
#441=DIRECTION('',(0.,-1.,0.));
#442=DIRECTION('',(-1.,0.,0.));
#443=DIRECTION('center_axis',(0.,0.,1.));
#444=DIRECTION('ref_axis',(-1.,0.,0.));
#445=DIRECTION('center_axis',(0.,0.,1.));
#446=DIRECTION('ref_axis',(1.,0.,0.));
#447=DIRECTION('',(-1.,0.,0.));
#448=DIRECTION('',(0.,1.,0.));
#449=DIRECTION('',(1.,0.,0.));
#450=DIRECTION('center_axis',(0.,1.,0.));
#451=DIRECTION('ref_axis',(-1.,0.,0.));
#452=DIRECTION('',(0.,0.,-1.));
#453=DIRECTION('center_axis',(0.,-1.,0.));
#454=DIRECTION('ref_axis',(1.,0.,0.));
#455=DIRECTION('',(0.,0.,1.));
#456=DIRECTION('center_axis',(-1.,0.,0.));
#457=DIRECTION('ref_axis',(0.,1.,0.));
#458=DIRECTION('',(0.,0.,-1.));
#459=DIRECTION('',(0.,0.,-1.));
#460=DIRECTION('center_axis',(0.,0.,-1.));
#461=DIRECTION('ref_axis',(-1.,0.,0.));
#462=DIRECTION('',(0.,0.,-1.));
#463=DIRECTION('center_axis',(0.,0.,1.));
#464=DIRECTION('ref_axis',(1.,0.,0.));
#465=DIRECTION('center_axis',(0.,0.,-1.));
#466=DIRECTION('ref_axis',(1.,0.,0.));
#467=DIRECTION('',(0.857167300702112,-1.04972719113862E-16,-0.515038074910054));
#468=DIRECTION('center_axis',(0.,0.,-1.));
#469=DIRECTION('ref_axis',(1.,0.,0.));
#470=DIRECTION('',(0.,0.,-1.));
#471=DIRECTION('center_axis',(0.,0.,1.));
#472=DIRECTION('ref_axis',(1.,0.,0.));
#473=DIRECTION('center_axis',(0.,0.,-1.));
#474=DIRECTION('ref_axis',(1.,0.,0.));
#475=DIRECTION('',(0.857167300702112,-1.04972719113862E-16,-0.515038074910054));
#476=DIRECTION('center_axis',(0.,0.,-1.));
#477=DIRECTION('ref_axis',(1.,0.,0.));
#478=DIRECTION('',(0.,0.,-1.));
#479=DIRECTION('center_axis',(0.,-1.,0.));
#480=DIRECTION('ref_axis',(-1.,0.,0.));
#481=DIRECTION('',(0.,0.,-1.));
#482=DIRECTION('center_axis',(1.,0.,0.));
#483=DIRECTION('ref_axis',(0.,-1.,0.));
#484=DIRECTION('',(0.,0.,-1.));
#485=DIRECTION('center_axis',(0.,1.,0.));
#486=DIRECTION('ref_axis',(1.,0.,0.));
#487=CARTESIAN_POINT('',(0.,0.,0.));
#488=CARTESIAN_POINT('Origin',(22.,23.125,0.));
#489=CARTESIAN_POINT('',(3.,23.125,3.));
#490=CARTESIAN_POINT('',(3.,23.125,0.));
#491=CARTESIAN_POINT('',(3.,23.125,0.));
#492=CARTESIAN_POINT('',(22.,23.125,3.));
#493=CARTESIAN_POINT('',(16.5,23.125,3.));
#494=CARTESIAN_POINT('',(22.,23.125,0.));
#495=CARTESIAN_POINT('',(22.,23.125,0.));
#496=CARTESIAN_POINT('',(16.5,23.125,0.));
#497=CARTESIAN_POINT('Origin',(11.,11.,3.));
#498=CARTESIAN_POINT('',(3.,11.875,3.));
#499=CARTESIAN_POINT('',(3.,12.,3.));
#500=CARTESIAN_POINT('',(22.,11.875,3.));
#501=CARTESIAN_POINT('',(5.5,11.875,3.));
#502=CARTESIAN_POINT('',(22.,0.,3.));
#503=CARTESIAN_POINT('',(6.5,18.125,3.));
#504=CARTESIAN_POINT('',(8.8,18.125,3.));
#505=CARTESIAN_POINT('',(8.75,18.125,3.));
#506=CARTESIAN_POINT('',(8.8,16.875,3.));
#507=CARTESIAN_POINT('',(8.8,14.5625,3.));
#508=CARTESIAN_POINT('',(6.5,16.875,3.));
#509=CARTESIAN_POINT('',(9.9,16.875,3.));
#510=CARTESIAN_POINT('',(6.5,13.9375,3.));
#511=CARTESIAN_POINT('',(6.171580152518,17.5,3.));
#512=CARTESIAN_POINT('Origin',(6.246580152518,17.5,3.));
#513=CARTESIAN_POINT('',(8.975,17.5,3.));
#514=CARTESIAN_POINT('Origin',(9.05,17.5,3.));
#515=CARTESIAN_POINT('',(17.76,17.5,3.));
#516=CARTESIAN_POINT('Origin',(17.5,17.5,3.));
#517=CARTESIAN_POINT('Origin',(3.,22.,0.));
#518=CARTESIAN_POINT('',(3.,17.9000002667308,0.));
#519=CARTESIAN_POINT('',(3.,16.5,0.));
#520=CARTESIAN_POINT('',(3.,17.9000002667308,0.4));
#521=CARTESIAN_POINT('',(3.,17.9000002667308,0.));
#522=CARTESIAN_POINT('',(3.,17.1000002548099,0.4));
#523=CARTESIAN_POINT('',(3.,15.4750000666827,0.4));
#524=CARTESIAN_POINT('',(3.,17.1000002548099,0.));
#525=CARTESIAN_POINT('',(3.,17.1000002548099,0.));
#526=CARTESIAN_POINT('',(3.,11.875,0.));
#527=CARTESIAN_POINT('',(3.,5.5,0.));
#528=CARTESIAN_POINT('',(3.,11.875,0.));
#529=CARTESIAN_POINT('Origin',(0.,11.875,0.));
#530=CARTESIAN_POINT('',(22.,11.875,0.));
#531=CARTESIAN_POINT('',(5.5,11.875,0.));
#532=CARTESIAN_POINT('',(22.,11.875,0.));
#533=CARTESIAN_POINT('Origin',(22.,0.,0.));
#534=CARTESIAN_POINT('',(22.,0.,0.));
#535=CARTESIAN_POINT('Origin',(11.,11.,0.));
#536=CARTESIAN_POINT('',(6.50000009685755,17.1000002548099,0.));
#537=CARTESIAN_POINT('',(5.9,17.1000002548099,0.));
#538=CARTESIAN_POINT('',(6.5,16.875,0.));
#539=CARTESIAN_POINT('',(6.5,13.9375,0.));
#540=CARTESIAN_POINT('',(8.8,16.875,0.));
#541=CARTESIAN_POINT('',(9.9,16.875,0.));
#542=CARTESIAN_POINT('',(8.8,18.125,0.));
#543=CARTESIAN_POINT('',(8.8,14.5625,0.));
#544=CARTESIAN_POINT('',(6.5,18.125,0.));
#545=CARTESIAN_POINT('',(8.75,18.125,0.));
#546=CARTESIAN_POINT('',(6.50000009685755,17.9000002667308,0.));
#547=CARTESIAN_POINT('',(6.5,13.9375,0.));
#548=CARTESIAN_POINT('',(8.75000004842877,17.9000002667308,0.));
#549=CARTESIAN_POINT('',(17.76,17.5,0.));
#550=CARTESIAN_POINT('Origin',(17.5,17.5,0.));
#551=CARTESIAN_POINT('Origin',(3.25000004842877,8.95000013336539,0.4));
#552=CARTESIAN_POINT('',(6.50000009685755,17.9000002667308,0.4));
#553=CARTESIAN_POINT('',(0.,17.9000002667308,0.4));
#554=CARTESIAN_POINT('',(6.50000009685755,17.1000002548099,0.4));
#555=CARTESIAN_POINT('',(6.5,12.9125000666827,0.4));
#556=CARTESIAN_POINT('',(0.,17.1000002548099,0.4));
#557=CARTESIAN_POINT('Origin',(6.50000009685755,17.9000002667308,0.));
#558=CARTESIAN_POINT('',(6.5,17.9000002667308,1.5));
#559=CARTESIAN_POINT('Origin',(0.8,17.1000002548099,0.));
#560=CARTESIAN_POINT('',(6.5,17.1000002548099,1.5));
#561=CARTESIAN_POINT('Origin',(6.5,16.875,3.));
#562=CARTESIAN_POINT('',(6.5,18.125,3.));
#563=CARTESIAN_POINT('',(6.5,16.875,3.));
#564=CARTESIAN_POINT('Origin',(17.5,17.5,3.));
#565=CARTESIAN_POINT('',(17.76,17.5,3.));
#566=CARTESIAN_POINT('Origin',(9.05,17.5,2.17746772678647));
#567=CARTESIAN_POINT('',(8.975,17.5,2.2));
#568=CARTESIAN_POINT('Origin',(9.05,17.5,2.2));
#569=CARTESIAN_POINT('',(9.05,17.5,2.15493545357293));
#570=CARTESIAN_POINT('',(9.0125,17.5,2.17746772678647));
#571=CARTESIAN_POINT('Origin',(9.05,17.5,2.6));
#572=CARTESIAN_POINT('',(8.975,17.5,2.6));
#573=CARTESIAN_POINT('Origin',(6.246580152518,17.5,2.17746772678647));
#574=CARTESIAN_POINT('',(6.171580152518,17.5,2.2));
#575=CARTESIAN_POINT('Origin',(6.246580152518,17.5,2.2));
#576=CARTESIAN_POINT('',(6.246580152518,17.5,2.15493545357293));
#577=CARTESIAN_POINT('',(6.209080152518,17.5,2.17746772678647));
#578=CARTESIAN_POINT('Origin',(6.246580152518,17.5,2.6));
#579=CARTESIAN_POINT('',(6.171580152518,17.5,2.6));
#580=CARTESIAN_POINT('Origin',(8.8,16.875,3.));
#581=CARTESIAN_POINT('',(8.8,16.875,3.));
#582=CARTESIAN_POINT('Origin',(8.8,18.125,3.));
#583=CARTESIAN_POINT('',(8.8,18.125,3.));
#584=CARTESIAN_POINT('Origin',(6.5,18.125,3.));
#585=UNCERTAINTY_MEASURE_WITH_UNIT(LENGTH_MEASURE(0.001),#589,
'DISTANCE_ACCURACY_VALUE',
'Maximum model space distance between geometric entities at asserted c
onnectivities');
#586=UNCERTAINTY_MEASURE_WITH_UNIT(LENGTH_MEASURE(0.001),#589,
'DISTANCE_ACCURACY_VALUE',
'Maximum model space distance between geometric entities at asserted c
onnectivities');
#587=(
GEOMETRIC_REPRESENTATION_CONTEXT(3)
GLOBAL_UNCERTAINTY_ASSIGNED_CONTEXT((#585))
GLOBAL_UNIT_ASSIGNED_CONTEXT((#589,#591,#592))
REPRESENTATION_CONTEXT('','3D')
);
#588=(
GEOMETRIC_REPRESENTATION_CONTEXT(3)
GLOBAL_UNCERTAINTY_ASSIGNED_CONTEXT((#586))
GLOBAL_UNIT_ASSIGNED_CONTEXT((#589,#591,#592))
REPRESENTATION_CONTEXT('','3D')
);
#589=(
LENGTH_UNIT()
NAMED_UNIT(*)
SI_UNIT(.CENTI.,.METRE.)
);
#590=(
LENGTH_UNIT()
NAMED_UNIT(*)
SI_UNIT($,.METRE.)
);
#591=(
NAMED_UNIT(*)
PLANE_ANGLE_UNIT()
SI_UNIT($,.RADIAN.)
);
#592=(
NAMED_UNIT(*)
SI_UNIT($,.STERADIAN.)
SOLID_ANGLE_UNIT()
);
#593=SHAPE_DEFINITION_REPRESENTATION(#594,#595);
#594=PRODUCT_DEFINITION_SHAPE('',$,#597);
#595=SHAPE_REPRESENTATION('',(#371),#587);
#596=PRODUCT_DEFINITION_CONTEXT('part definition',#601,'design');
#597=PRODUCT_DEFINITION('2026-07-23-17-02-21-139','base_rettangolare',#598,
#596);
#598=PRODUCT_DEFINITION_FORMATION('',$,#603);
#599=PRODUCT_RELATED_PRODUCT_CATEGORY('base_rettangolare',
'base_rettangolare',(#603));
#600=APPLICATION_PROTOCOL_DEFINITION('international standard',
'automotive_design',2009,#601);
#601=APPLICATION_CONTEXT(
'Core Data for Automotive Mechanical Design Process');
#602=PRODUCT_CONTEXT('part definition',#601,'mechanical');
#603=PRODUCT('2026-07-23-17-02-21-139','base_rettangolare',$,(#602));
#604=PRESENTATION_STYLE_ASSIGNMENT((#605));
#605=SURFACE_STYLE_USAGE(.BOTH.,#606);
#606=SURFACE_SIDE_STYLE('',(#607));
#607=SURFACE_STYLE_FILL_AREA(#608);
#608=FILL_AREA_STYLE('Acciaio - Satinato',(#609));
#609=FILL_AREA_STYLE_COLOUR('Acciaio - Satinato',#610);
#610=COLOUR_RGB('Acciaio - Satinato',0.627450980392157,0.627450980392157,
0.627450980392157);
ENDSEC;
END-ISO-10303-21;
