ISO-10303-21;
HEADER;
/* Generated by software containing ST-Developer
 * from STEP Tools, Inc. (www.steptools.com) 
 */

FILE_DESCRIPTION(
/* description */ (''),
/* implementation_level */ '2;1');

FILE_NAME(
/* name */ 'croce_ldr.step',
/* time_stamp */ '2026-09-09T15:39:22+02:00',
/* author */ (''),
/* organization */ (''),
/* preprocessor_version */ 'ST-DEVELOPER v20.2',
/* originating_system */ 'Autodesk Translation Framework v15.15.0.0',
/* authorisation */ '');

FILE_SCHEMA (('AUTOMOTIVE_DESIGN { 1 0 10303 214 3 1 1 }'));
ENDSEC;

DATA;
#10=MECHANICAL_DESIGN_GEOMETRIC_PRESENTATION_REPRESENTATION('',(#13),#447);
#11=SHAPE_REPRESENTATION_RELATIONSHIP('SRR','None',#454,#12);
#12=ADVANCED_BREP_SHAPE_REPRESENTATION('',(#14),#446);
#13=STYLED_ITEM('',(#463),#14);
#14=MANIFOLD_SOLID_BREP('Corpo1',#275);
#15=FACE_OUTER_BOUND('',#29,.T.);
#16=FACE_OUTER_BOUND('',#30,.T.);
#17=FACE_OUTER_BOUND('',#31,.T.);
#18=FACE_OUTER_BOUND('',#32,.T.);
#19=FACE_OUTER_BOUND('',#33,.T.);
#20=FACE_OUTER_BOUND('',#34,.T.);
#21=FACE_OUTER_BOUND('',#35,.T.);
#22=FACE_OUTER_BOUND('',#36,.T.);
#23=FACE_OUTER_BOUND('',#37,.T.);
#24=FACE_OUTER_BOUND('',#38,.T.);
#25=FACE_OUTER_BOUND('',#39,.T.);
#26=FACE_OUTER_BOUND('',#40,.T.);
#27=FACE_OUTER_BOUND('',#41,.T.);
#28=FACE_OUTER_BOUND('',#42,.T.);
#29=EDGE_LOOP('',(#175,#176,#177,#178));
#30=EDGE_LOOP('',(#179,#180,#181,#182));
#31=EDGE_LOOP('',(#183,#184,#185,#186));
#32=EDGE_LOOP('',(#187,#188,#189,#190,#191,#192,#193,#194,#195,#196,#197,
#198));
#33=EDGE_LOOP('',(#199,#200,#201,#202));
#34=EDGE_LOOP('',(#203,#204,#205,#206));
#35=EDGE_LOOP('',(#207,#208,#209,#210));
#36=EDGE_LOOP('',(#211,#212,#213,#214));
#37=EDGE_LOOP('',(#215,#216,#217,#218));
#38=EDGE_LOOP('',(#219,#220,#221,#222));
#39=EDGE_LOOP('',(#223,#224,#225,#226));
#40=EDGE_LOOP('',(#227,#228,#229,#230));
#41=EDGE_LOOP('',(#231,#232,#233,#234));
#42=EDGE_LOOP('',(#235,#236,#237,#238,#239,#240,#241,#242,#243,#244,#245,
#246));
#43=LINE('',#373,#79);
#44=LINE('',#375,#80);
#45=LINE('',#377,#81);
#46=LINE('',#378,#82);
#47=LINE('',#382,#83);
#48=LINE('',#384,#84);
#49=LINE('',#386,#85);
#50=LINE('',#387,#86);
#51=LINE('',#390,#87);
#52=LINE('',#392,#88);
#53=LINE('',#393,#89);
#54=LINE('',#396,#90);
#55=LINE('',#398,#91);
#56=LINE('',#399,#92);
#57=LINE('',#401,#93);
#58=LINE('',#403,#94);
#59=LINE('',#405,#95);
#60=LINE('',#407,#96);
#61=LINE('',#409,#97);
#62=LINE('',#410,#98);
#63=LINE('',#413,#99);
#64=LINE('',#414,#100);
#65=LINE('',#417,#101);
#66=LINE('',#419,#102);
#67=LINE('',#420,#103);
#68=LINE('',#422,#104);
#69=LINE('',#425,#105);
#70=LINE('',#426,#106);
#71=LINE('',#429,#107);
#72=LINE('',#430,#108);
#73=LINE('',#433,#109);
#74=LINE('',#434,#110);
#75=LINE('',#437,#111);
#76=LINE('',#438,#112);
#77=LINE('',#440,#113);
#78=LINE('',#442,#114);
#79=VECTOR('',#307,1.);
#80=VECTOR('',#308,1.);
#81=VECTOR('',#309,1.);
#82=VECTOR('',#310,1.);
#83=VECTOR('',#313,1.);
#84=VECTOR('',#314,1.);
#85=VECTOR('',#315,1.);
#86=VECTOR('',#316,1.);
#87=VECTOR('',#319,1.);
#88=VECTOR('',#320,1.);
#89=VECTOR('',#321,1.);
#90=VECTOR('',#324,1.);
#91=VECTOR('',#325,1.);
#92=VECTOR('',#326,1.);
#93=VECTOR('',#327,1.);
#94=VECTOR('',#328,1.);
#95=VECTOR('',#329,1.);
#96=VECTOR('',#330,1.);
#97=VECTOR('',#331,1.);
#98=VECTOR('',#332,1.);
#99=VECTOR('',#335,1.);
#100=VECTOR('',#336,1.);
#101=VECTOR('',#339,1.);
#102=VECTOR('',#340,1.);
#103=VECTOR('',#341,1.);
#104=VECTOR('',#344,1.);
#105=VECTOR('',#347,1.);
#106=VECTOR('',#348,1.);
#107=VECTOR('',#351,1.);
#108=VECTOR('',#352,1.);
#109=VECTOR('',#355,1.);
#110=VECTOR('',#356,1.);
#111=VECTOR('',#359,1.);
#112=VECTOR('',#360,1.);
#113=VECTOR('',#363,1.);
#114=VECTOR('',#366,1.);
#115=VERTEX_POINT('',#371);
#116=VERTEX_POINT('',#372);
#117=VERTEX_POINT('',#374);
#118=VERTEX_POINT('',#376);
#119=VERTEX_POINT('',#380);
#120=VERTEX_POINT('',#381);
#121=VERTEX_POINT('',#383);
#122=VERTEX_POINT('',#385);
#123=VERTEX_POINT('',#389);
#124=VERTEX_POINT('',#391);
#125=VERTEX_POINT('',#395);
#126=VERTEX_POINT('',#397);
#127=VERTEX_POINT('',#400);
#128=VERTEX_POINT('',#402);
#129=VERTEX_POINT('',#404);
#130=VERTEX_POINT('',#406);
#131=VERTEX_POINT('',#408);
#132=VERTEX_POINT('',#412);
#133=VERTEX_POINT('',#416);
#134=VERTEX_POINT('',#418);
#135=VERTEX_POINT('',#424);
#136=VERTEX_POINT('',#428);
#137=VERTEX_POINT('',#432);
#138=VERTEX_POINT('',#436);
#139=EDGE_CURVE('',#115,#116,#43,.T.);
#140=EDGE_CURVE('',#117,#115,#44,.T.);
#141=EDGE_CURVE('',#118,#117,#45,.T.);
#142=EDGE_CURVE('',#116,#118,#46,.T.);
#143=EDGE_CURVE('',#119,#120,#47,.T.);
#144=EDGE_CURVE('',#121,#119,#48,.T.);
#145=EDGE_CURVE('',#122,#121,#49,.T.);
#146=EDGE_CURVE('',#120,#122,#50,.T.);
#147=EDGE_CURVE('',#123,#115,#51,.T.);
#148=EDGE_CURVE('',#123,#124,#52,.T.);
#149=EDGE_CURVE('',#117,#124,#53,.T.);
#150=EDGE_CURVE('',#116,#125,#54,.T.);
#151=EDGE_CURVE('',#125,#126,#55,.T.);
#152=EDGE_CURVE('',#126,#119,#56,.T.);
#153=EDGE_CURVE('',#120,#127,#57,.T.);
#154=EDGE_CURVE('',#127,#128,#58,.T.);
#155=EDGE_CURVE('',#128,#129,#59,.T.);
#156=EDGE_CURVE('',#129,#130,#60,.T.);
#157=EDGE_CURVE('',#130,#131,#61,.T.);
#158=EDGE_CURVE('',#131,#123,#62,.T.);
#159=EDGE_CURVE('',#132,#131,#63,.T.);
#160=EDGE_CURVE('',#124,#132,#64,.T.);
#161=EDGE_CURVE('',#133,#127,#65,.T.);
#162=EDGE_CURVE('',#134,#133,#66,.T.);
#163=EDGE_CURVE('',#128,#134,#67,.T.);
#164=EDGE_CURVE('',#133,#122,#68,.T.);
#165=EDGE_CURVE('',#135,#134,#69,.T.);
#166=EDGE_CURVE('',#129,#135,#70,.T.);
#167=EDGE_CURVE('',#136,#126,#71,.T.);
#168=EDGE_CURVE('',#121,#136,#72,.T.);
#169=EDGE_CURVE('',#137,#135,#73,.T.);
#170=EDGE_CURVE('',#137,#130,#74,.T.);
#171=EDGE_CURVE('',#125,#138,#75,.T.);
#172=EDGE_CURVE('',#136,#138,#76,.T.);
#173=EDGE_CURVE('',#132,#137,#77,.T.);
#174=EDGE_CURVE('',#138,#118,#78,.T.);
#175=ORIENTED_EDGE('',*,*,#139,.F.);
#176=ORIENTED_EDGE('',*,*,#140,.F.);
#177=ORIENTED_EDGE('',*,*,#141,.F.);
#178=ORIENTED_EDGE('',*,*,#142,.F.);
#179=ORIENTED_EDGE('',*,*,#143,.F.);
#180=ORIENTED_EDGE('',*,*,#144,.F.);
#181=ORIENTED_EDGE('',*,*,#145,.F.);
#182=ORIENTED_EDGE('',*,*,#146,.F.);
#183=ORIENTED_EDGE('',*,*,#140,.T.);
#184=ORIENTED_EDGE('',*,*,#147,.F.);
#185=ORIENTED_EDGE('',*,*,#148,.T.);
#186=ORIENTED_EDGE('',*,*,#149,.F.);
#187=ORIENTED_EDGE('',*,*,#139,.T.);
#188=ORIENTED_EDGE('',*,*,#150,.T.);
#189=ORIENTED_EDGE('',*,*,#151,.T.);
#190=ORIENTED_EDGE('',*,*,#152,.T.);
#191=ORIENTED_EDGE('',*,*,#143,.T.);
#192=ORIENTED_EDGE('',*,*,#153,.T.);
#193=ORIENTED_EDGE('',*,*,#154,.T.);
#194=ORIENTED_EDGE('',*,*,#155,.T.);
#195=ORIENTED_EDGE('',*,*,#156,.T.);
#196=ORIENTED_EDGE('',*,*,#157,.T.);
#197=ORIENTED_EDGE('',*,*,#158,.T.);
#198=ORIENTED_EDGE('',*,*,#147,.T.);
#199=ORIENTED_EDGE('',*,*,#158,.F.);
#200=ORIENTED_EDGE('',*,*,#159,.F.);
#201=ORIENTED_EDGE('',*,*,#160,.F.);
#202=ORIENTED_EDGE('',*,*,#148,.F.);
#203=ORIENTED_EDGE('',*,*,#154,.F.);
#204=ORIENTED_EDGE('',*,*,#161,.F.);
#205=ORIENTED_EDGE('',*,*,#162,.F.);
#206=ORIENTED_EDGE('',*,*,#163,.F.);
#207=ORIENTED_EDGE('',*,*,#146,.T.);
#208=ORIENTED_EDGE('',*,*,#164,.F.);
#209=ORIENTED_EDGE('',*,*,#161,.T.);
#210=ORIENTED_EDGE('',*,*,#153,.F.);
#211=ORIENTED_EDGE('',*,*,#155,.F.);
#212=ORIENTED_EDGE('',*,*,#163,.T.);
#213=ORIENTED_EDGE('',*,*,#165,.F.);
#214=ORIENTED_EDGE('',*,*,#166,.F.);
#215=ORIENTED_EDGE('',*,*,#152,.F.);
#216=ORIENTED_EDGE('',*,*,#167,.F.);
#217=ORIENTED_EDGE('',*,*,#168,.F.);
#218=ORIENTED_EDGE('',*,*,#144,.T.);
#219=ORIENTED_EDGE('',*,*,#166,.T.);
#220=ORIENTED_EDGE('',*,*,#169,.F.);
#221=ORIENTED_EDGE('',*,*,#170,.T.);
#222=ORIENTED_EDGE('',*,*,#156,.F.);
#223=ORIENTED_EDGE('',*,*,#167,.T.);
#224=ORIENTED_EDGE('',*,*,#151,.F.);
#225=ORIENTED_EDGE('',*,*,#171,.T.);
#226=ORIENTED_EDGE('',*,*,#172,.F.);
#227=ORIENTED_EDGE('',*,*,#157,.F.);
#228=ORIENTED_EDGE('',*,*,#170,.F.);
#229=ORIENTED_EDGE('',*,*,#173,.F.);
#230=ORIENTED_EDGE('',*,*,#159,.T.);
#231=ORIENTED_EDGE('',*,*,#150,.F.);
#232=ORIENTED_EDGE('',*,*,#142,.T.);
#233=ORIENTED_EDGE('',*,*,#174,.F.);
#234=ORIENTED_EDGE('',*,*,#171,.F.);
#235=ORIENTED_EDGE('',*,*,#141,.T.);
#236=ORIENTED_EDGE('',*,*,#149,.T.);
#237=ORIENTED_EDGE('',*,*,#160,.T.);
#238=ORIENTED_EDGE('',*,*,#173,.T.);
#239=ORIENTED_EDGE('',*,*,#169,.T.);
#240=ORIENTED_EDGE('',*,*,#165,.T.);
#241=ORIENTED_EDGE('',*,*,#162,.T.);
#242=ORIENTED_EDGE('',*,*,#164,.T.);
#243=ORIENTED_EDGE('',*,*,#145,.T.);
#244=ORIENTED_EDGE('',*,*,#168,.T.);
#245=ORIENTED_EDGE('',*,*,#172,.T.);
#246=ORIENTED_EDGE('',*,*,#174,.T.);
#247=PLANE('',#289);
#248=PLANE('',#290);
#249=PLANE('',#291);
#250=PLANE('',#292);
#251=PLANE('',#293);
#252=PLANE('',#294);
#253=PLANE('',#295);
#254=PLANE('',#296);
#255=PLANE('',#297);
#256=PLANE('',#298);
#257=PLANE('',#299);
#258=PLANE('',#300);
#259=PLANE('',#301);
#260=PLANE('',#302);
#261=ADVANCED_FACE('',(#15),#247,.F.);
#262=ADVANCED_FACE('',(#16),#248,.F.);
#263=ADVANCED_FACE('',(#17),#249,.T.);
#264=ADVANCED_FACE('',(#18),#250,.F.);
#265=ADVANCED_FACE('',(#19),#251,.F.);
#266=ADVANCED_FACE('',(#20),#252,.F.);
#267=ADVANCED_FACE('',(#21),#253,.T.);
#268=ADVANCED_FACE('',(#22),#254,.F.);
#269=ADVANCED_FACE('',(#23),#255,.F.);
#270=ADVANCED_FACE('',(#24),#256,.T.);
#271=ADVANCED_FACE('',(#25),#257,.T.);
#272=ADVANCED_FACE('',(#26),#258,.F.);
#273=ADVANCED_FACE('',(#27),#259,.F.);
#274=ADVANCED_FACE('',(#28),#260,.T.);
#275=CLOSED_SHELL('',(#261,#262,#263,#264,#265,#266,#267,#268,#269,#270,
#271,#272,#273,#274));
#276=DERIVED_UNIT_ELEMENT(#278,1.);
#277=DERIVED_UNIT_ELEMENT(#449,-3.);
#278=(
MASS_UNIT()
NAMED_UNIT(*)
SI_UNIT(.KILO.,.GRAM.)
);
#279=DERIVED_UNIT((#276,#277));
#280=MEASURE_REPRESENTATION_ITEM('density measure',
POSITIVE_RATIO_MEASURE(7850.),#279);
#281=PROPERTY_DEFINITION_REPRESENTATION(#286,#283);
#282=PROPERTY_DEFINITION_REPRESENTATION(#287,#284);
#283=REPRESENTATION('material name',(#285),#446);
#284=REPRESENTATION('density',(#280),#446);
#285=DESCRIPTIVE_REPRESENTATION_ITEM('Acciaio','Acciaio');
#286=PROPERTY_DEFINITION('material property','material name',#456);
#287=PROPERTY_DEFINITION('material property','density of part',#456);
#288=AXIS2_PLACEMENT_3D('',#369,#303,#304);
#289=AXIS2_PLACEMENT_3D('',#370,#305,#306);
#290=AXIS2_PLACEMENT_3D('',#379,#311,#312);
#291=AXIS2_PLACEMENT_3D('',#388,#317,#318);
#292=AXIS2_PLACEMENT_3D('',#394,#322,#323);
#293=AXIS2_PLACEMENT_3D('',#411,#333,#334);
#294=AXIS2_PLACEMENT_3D('',#415,#337,#338);
#295=AXIS2_PLACEMENT_3D('',#421,#342,#343);
#296=AXIS2_PLACEMENT_3D('',#423,#345,#346);
#297=AXIS2_PLACEMENT_3D('',#427,#349,#350);
#298=AXIS2_PLACEMENT_3D('',#431,#353,#354);
#299=AXIS2_PLACEMENT_3D('',#435,#357,#358);
#300=AXIS2_PLACEMENT_3D('',#439,#361,#362);
#301=AXIS2_PLACEMENT_3D('',#441,#364,#365);
#302=AXIS2_PLACEMENT_3D('',#443,#367,#368);
#303=DIRECTION('axis',(0.,0.,1.));
#304=DIRECTION('refdir',(1.,0.,0.));
#305=DIRECTION('center_axis',(0.,0.,1.));
#306=DIRECTION('ref_axis',(1.,0.,0.));
#307=DIRECTION('',(1.,0.,0.));
#308=DIRECTION('',(0.,-1.,0.));
#309=DIRECTION('',(-1.,0.,0.));
#310=DIRECTION('',(0.,1.,0.));
#311=DIRECTION('center_axis',(0.,0.,1.));
#312=DIRECTION('ref_axis',(1.,0.,0.));
#313=DIRECTION('',(1.,0.,0.));
#314=DIRECTION('',(0.,-1.,0.));
#315=DIRECTION('',(-1.,0.,0.));
#316=DIRECTION('',(0.,1.,0.));
#317=DIRECTION('center_axis',(-1.,0.,0.));
#318=DIRECTION('ref_axis',(0.,0.,1.));
#319=DIRECTION('',(0.,0.,-1.));
#320=DIRECTION('',(0.,1.,0.));
#321=DIRECTION('',(0.,0.,1.));
#322=DIRECTION('center_axis',(0.,1.,0.));
#323=DIRECTION('ref_axis',(1.,0.,0.));
#324=DIRECTION('',(0.,0.,-1.));
#325=DIRECTION('',(1.,0.,0.));
#326=DIRECTION('',(0.,0.,1.));
#327=DIRECTION('',(0.,0.,1.));
#328=DIRECTION('',(-1.,0.,0.));
#329=DIRECTION('',(0.,0.,1.));
#330=DIRECTION('',(-1.,0.,0.));
#331=DIRECTION('',(0.,0.,-1.));
#332=DIRECTION('',(-1.,0.,0.));
#333=DIRECTION('center_axis',(0.,0.,-1.));
#334=DIRECTION('ref_axis',(-1.,0.,0.));
#335=DIRECTION('',(0.,-1.,0.));
#336=DIRECTION('',(1.,0.,0.));
#337=DIRECTION('center_axis',(0.,0.,-1.));
#338=DIRECTION('ref_axis',(-1.,0.,0.));
#339=DIRECTION('',(0.,-1.,0.));
#340=DIRECTION('',(1.,0.,0.));
#341=DIRECTION('',(0.,1.,0.));
#342=DIRECTION('center_axis',(1.,0.,0.));
#343=DIRECTION('ref_axis',(0.,0.,-1.));
#344=DIRECTION('',(0.,0.,-1.));
#345=DIRECTION('center_axis',(-1.,0.,0.));
#346=DIRECTION('ref_axis',(0.,0.,1.));
#347=DIRECTION('',(0.,0.,-1.));
#348=DIRECTION('',(0.,1.,0.));
#349=DIRECTION('center_axis',(-1.,0.,0.));
#350=DIRECTION('ref_axis',(0.,0.,1.));
#351=DIRECTION('',(0.,-1.,0.));
#352=DIRECTION('',(0.,0.,-1.));
#353=DIRECTION('center_axis',(0.,0.,1.));
#354=DIRECTION('ref_axis',(1.,0.,0.));
#355=DIRECTION('',(1.,0.,0.));
#356=DIRECTION('',(0.,-1.,0.));
#357=DIRECTION('center_axis',(0.,0.,-1.));
#358=DIRECTION('ref_axis',(-1.,0.,0.));
#359=DIRECTION('',(0.,1.,0.));
#360=DIRECTION('',(-1.,0.,0.));
#361=DIRECTION('center_axis',(1.,0.,0.));
#362=DIRECTION('ref_axis',(0.,0.,-1.));
#363=DIRECTION('',(0.,0.,1.));
#364=DIRECTION('center_axis',(1.,0.,0.));
#365=DIRECTION('ref_axis',(0.,0.,-1.));
#366=DIRECTION('',(0.,0.,1.));
#367=DIRECTION('center_axis',(0.,1.,0.));
#368=DIRECTION('ref_axis',(0.,0.,1.));
#369=CARTESIAN_POINT('',(0.,0.,0.));
#370=CARTESIAN_POINT('Origin',(0.,0.,0.920000014901161));
#371=CARTESIAN_POINT('',(-0.899999998509884,0.,0.920000014901161));
#372=CARTESIAN_POINT('',(0.015,0.,0.920000014901161));
#373=CARTESIAN_POINT('',(0.0500000007450581,0.,0.920000014901161));
#374=CARTESIAN_POINT('',(-0.899999998509884,2.5,0.920000014901161));
#375=CARTESIAN_POINT('',(-0.899999998509884,0.,0.920000014901161));
#376=CARTESIAN_POINT('',(0.015,2.5,0.920000014901161));
#377=CARTESIAN_POINT('',(0.0500000007450581,2.5,0.920000014901161));
#378=CARTESIAN_POINT('',(0.015,0.,0.920000014901161));
#379=CARTESIAN_POINT('Origin',(1.10000000149012,0.,0.920000014901161));
#380=CARTESIAN_POINT('',(0.175,0.,0.920000014901161));
#381=CARTESIAN_POINT('',(1.10000000149012,0.,0.920000014901161));
#382=CARTESIAN_POINT('',(0.600000001490116,0.,0.920000014901161));
#383=CARTESIAN_POINT('',(0.175,2.5,0.920000014901161));
#384=CARTESIAN_POINT('',(0.175,0.,0.920000014901161));
#385=CARTESIAN_POINT('',(1.10000000149012,2.5,0.920000014901161));
#386=CARTESIAN_POINT('',(0.600000001490116,2.5,0.920000014901161));
#387=CARTESIAN_POINT('',(1.10000000149012,0.,0.920000014901161));
#388=CARTESIAN_POINT('Origin',(-0.899999998509884,0.,0.905000014901161));
#389=CARTESIAN_POINT('',(-0.899999998509884,0.,1.08000001490116));
#390=CARTESIAN_POINT('',(-0.899999998509884,0.,1.09500001490116));
#391=CARTESIAN_POINT('',(-0.899999998509884,2.5,1.08000001490116));
#392=CARTESIAN_POINT('',(-0.899999998509884,0.,1.08000001490116));
#393=CARTESIAN_POINT('',(-0.899999998509884,2.5,1.09500001490116));
#394=CARTESIAN_POINT('Origin',(0.100000001490116,0.,1.));
#395=CARTESIAN_POINT('',(0.015,0.,0.));
#396=CARTESIAN_POINT('',(0.015,0.,0.952500007450581));
#397=CARTESIAN_POINT('',(0.175,0.,0.));
#398=CARTESIAN_POINT('',(0.,0.,0.));
#399=CARTESIAN_POINT('',(0.175,0.,0.952500007450581));
#400=CARTESIAN_POINT('',(1.10000000149012,0.,1.08000001490116));
#401=CARTESIAN_POINT('',(1.10000000149012,0.,0.905000014901161));
#402=CARTESIAN_POINT('',(0.175,0.,1.08000001490116));
#403=CARTESIAN_POINT('',(0.145000000745058,0.,1.08000001490116));
#404=CARTESIAN_POINT('',(0.175,0.,2.));
#405=CARTESIAN_POINT('',(0.175,0.,1.04750000745058));
#406=CARTESIAN_POINT('',(0.015,0.,2.));
#407=CARTESIAN_POINT('',(0.19,0.,2.));
#408=CARTESIAN_POINT('',(0.015,0.,1.08000001490116));
#409=CARTESIAN_POINT('',(0.015,0.,1.04750000745058));
#410=CARTESIAN_POINT('',(-0.399999998509884,0.,1.08000001490116));
#411=CARTESIAN_POINT('Origin',(-0.899999998509884,0.,1.08000001490116));
#412=CARTESIAN_POINT('',(0.015,2.5,1.08000001490116));
#413=CARTESIAN_POINT('',(0.015,0.,1.08000001490116));
#414=CARTESIAN_POINT('',(-0.399999998509884,2.5,1.08000001490116));
#415=CARTESIAN_POINT('Origin',(0.19,0.,1.08000001490116));
#416=CARTESIAN_POINT('',(1.10000000149012,2.5,1.08000001490116));
#417=CARTESIAN_POINT('',(1.10000000149012,0.,1.08000001490116));
#418=CARTESIAN_POINT('',(0.175,2.5,1.08000001490116));
#419=CARTESIAN_POINT('',(0.145000000745058,2.5,1.08000001490116));
#420=CARTESIAN_POINT('',(0.175,0.,1.08000001490116));
#421=CARTESIAN_POINT('Origin',(1.10000000149012,0.,1.09500001490116));
#422=CARTESIAN_POINT('',(1.10000000149012,2.5,0.905000014901161));
#423=CARTESIAN_POINT('Origin',(0.175,0.,2.));
#424=CARTESIAN_POINT('',(0.175,2.5,2.));
#425=CARTESIAN_POINT('',(0.175,2.5,1.04750000745058));
#426=CARTESIAN_POINT('',(0.175,0.,2.));
#427=CARTESIAN_POINT('Origin',(0.175,0.,0.905000014901161));
#428=CARTESIAN_POINT('',(0.175,2.5,0.));
#429=CARTESIAN_POINT('',(0.175,0.,0.));
#430=CARTESIAN_POINT('',(0.175,2.5,0.952500007450581));
#431=CARTESIAN_POINT('Origin',(0.,0.,2.));
#432=CARTESIAN_POINT('',(0.015,2.5,2.));
#433=CARTESIAN_POINT('',(0.19,2.5,2.));
#434=CARTESIAN_POINT('',(0.015,0.,2.));
#435=CARTESIAN_POINT('Origin',(0.19,0.,0.));
#436=CARTESIAN_POINT('',(0.015,2.5,0.));
#437=CARTESIAN_POINT('',(0.015,0.,0.));
#438=CARTESIAN_POINT('',(0.,2.5,0.));
#439=CARTESIAN_POINT('Origin',(0.015,0.,1.09500001490116));
#440=CARTESIAN_POINT('',(0.015,2.5,1.04750000745058));
#441=CARTESIAN_POINT('Origin',(0.015,0.,0.));
#442=CARTESIAN_POINT('',(0.015,2.5,0.952500007450581));
#443=CARTESIAN_POINT('Origin',(0.100000001490116,2.5,1.));
#444=UNCERTAINTY_MEASURE_WITH_UNIT(LENGTH_MEASURE(0.001),#448,
'DISTANCE_ACCURACY_VALUE',
'Maximum model space distance between geometric entities at asserted c
onnectivities');
#445=UNCERTAINTY_MEASURE_WITH_UNIT(LENGTH_MEASURE(0.001),#448,
'DISTANCE_ACCURACY_VALUE',
'Maximum model space distance between geometric entities at asserted c
onnectivities');
#446=(
GEOMETRIC_REPRESENTATION_CONTEXT(3)
GLOBAL_UNCERTAINTY_ASSIGNED_CONTEXT((#444))
GLOBAL_UNIT_ASSIGNED_CONTEXT((#448,#450,#451))
REPRESENTATION_CONTEXT('','3D')
);
#447=(
GEOMETRIC_REPRESENTATION_CONTEXT(3)
GLOBAL_UNCERTAINTY_ASSIGNED_CONTEXT((#445))
GLOBAL_UNIT_ASSIGNED_CONTEXT((#448,#450,#451))
REPRESENTATION_CONTEXT('','3D')
);
#448=(
LENGTH_UNIT()
NAMED_UNIT(*)
SI_UNIT(.CENTI.,.METRE.)
);
#449=(
LENGTH_UNIT()
NAMED_UNIT(*)
SI_UNIT($,.METRE.)
);
#450=(
NAMED_UNIT(*)
PLANE_ANGLE_UNIT()
SI_UNIT($,.RADIAN.)
);
#451=(
NAMED_UNIT(*)
SI_UNIT($,.STERADIAN.)
SOLID_ANGLE_UNIT()
);
#452=SHAPE_DEFINITION_REPRESENTATION(#453,#454);
#453=PRODUCT_DEFINITION_SHAPE('',$,#456);
#454=SHAPE_REPRESENTATION('',(#288),#446);
#455=PRODUCT_DEFINITION_CONTEXT('part definition',#460,'design');
#456=PRODUCT_DEFINITION('2026-07-23-18-56-27-327','croce_ldr',#457,#455);
#457=PRODUCT_DEFINITION_FORMATION('',$,#462);
#458=PRODUCT_RELATED_PRODUCT_CATEGORY('croce_ldr','croce_ldr',(#462));
#459=APPLICATION_PROTOCOL_DEFINITION('international standard',
'automotive_design',2009,#460);
#460=APPLICATION_CONTEXT(
'Core Data for Automotive Mechanical Design Process');
#461=PRODUCT_CONTEXT('part definition',#460,'mechanical');
#462=PRODUCT('2026-07-23-18-56-27-327','croce_ldr',$,(#461));
#463=PRESENTATION_STYLE_ASSIGNMENT((#464));
#464=SURFACE_STYLE_USAGE(.BOTH.,#465);
#465=SURFACE_SIDE_STYLE('',(#466));
#466=SURFACE_STYLE_FILL_AREA(#467);
#467=FILL_AREA_STYLE('Acciaio - Satinato',(#468));
#468=FILL_AREA_STYLE_COLOUR('Acciaio - Satinato',#469);
#469=COLOUR_RGB('Acciaio - Satinato',0.627450980392157,0.627450980392157,
0.627450980392157);
ENDSEC;
END-ISO-10303-21;
